PathFileType	4	(X/Y/Z)	RBDS016static.trc
DataRate	CameraRate	NumFrames	NumMarkers	Units	OrigDataRate	OrigDataStartFrame	OrigNumFrames
150.000000	150.000000	4	48	mm	150.000000	131	150
Frame#	Time	L.Ankle			L.Ankle.Medial			L.ASIS			L.GTR			L.Heel.Bottom			L.Heel.Lateral			L.Heel.Top			L.HF			L.Iliac.Crest			L.Knee			L.Knee.Medial			L.MT1			L.MT2			L.MT5			L.PSIS			L.Shank.Bottom.Lateral			L.Shank.Bottom.Medial			L.Shank.Top.Lateral			L.Shank.Top.Medial			L.Thigh.Bottom.Lateral			L.Thigh.Bottom.Medial			L.Thigh.Top.Lateral			L.Thigh.Top.Medial			L.TT			R.Ankle			R.Ankle.Medial			R.ASIS			R.GTR			R.Heel.Bottom			R.Heel.Lateral			R.Heel.Top			R.HF			R.Iliac.Crest			R.Knee			R.Knee.Medial			R.MT1			R.MT2			R.MT5			R.PSIS			R.Shank.Bottom.Lateral			R.Shank.Bottom.Medial			R.Shank.Top.Lateral			R.Shank.Top.Medial			R.Thigh.Bottom.Lateral			R.Thigh.Bottom.Medial			R.Thigh.Top.Lateral			R.Thigh.Top.Medial			R.TT			
		X1	Y1	Z1	X2	Y2	Z2	X3	Y3	Z3	X4	Y4	Z4	X5	Y5	Z5	X6	Y6	Z6	X7	Y7	Z7	X8	Y8	Z8	X9	Y9	Z9	X10	Y10	Z10	X11	Y11	Z11	X12	Y12	Z12	X13	Y13	Z13	X14	Y14	Z14	X15	Y15	Z15	X16	Y16	Z16	X17	Y17	Z17	X18	Y18	Z18	X19	Y19	Z19	X20	Y20	Z20	X21	Y21	Z21	X22	Y22	Z22	X23	Y23	Z23	X24	Y24	Z24	X25	Y25	Z25	X26	Y26	Z26	X27	Y27	Z27	X28	Y28	Z28	X29	Y29	Z29	X30	Y30	Z30	X31	Y31	Z31	X32	Y32	Z32	X33	Y33	Z33	X34	Y34	Z34	X35	Y35	Z35	X36	Y36	Z36	X37	Y37	Z37	X38	Y38	Z38	X39	Y39	Z39	X40	Y40	Z40	X41	Y41	Z41	X42	Y42	Z42	X43	Y43	Z43	X44	Y44	Z44	X45	Y45	Z45	X46	Y46	Z46	X47	Y47	Z47	X48	Y48	Z48	

132	0.8733333333333334	722.7844848632813	98.35517120361328	1045.133544921875	732.1691284179688	111.2379913330078	1132.379272460938	860.1599731445313	945.3667602539063	1126.239990234375	783.7373657226563	882.1328735351563	1054.7373046875	645.0240478515625	40.43195343017578	1088.12109375	669.0449829101563	62.32235336303711	1047.265625	654.3719482421875	88.00789642333984	1089.018432617188	754.611328125	444.9286193847656	1027.78857421875	774.4019165039063	1007.349060058594	1065.101318359375	757.8941040039063	504.2900695800781	1032.776733398438	732.3604125976563	481.3211364746094	1164.8369140625	861.1729736328125	60.55839157104492	1127.364990234375	865.5697631835938	70.37575531005859	1089.000122070313	828.196044921875	53.12134552001953	1021.740295410156	663.7269287109375	966.8596801757813	1184.135986328125	702.7386474609375	175.243408203125	1039.583618164063	674.683349609375	178.8340148925781	1087.69775390625	695.6710205078125	255.0384216308594	1030.093505859375	669.8873901367188	259.2610168457031	1077.767578125	746.58251953125	586.9100952148438	1029.9716796875	684.8161010742188	592.8465576171875	1069.068603515625	755.3359375	696.5130004882813	1029.13623046875	696.9588623046875	701.7340698242188	1068.021484375	802.7562255859375	429.0635681152344	1091.640991210938	714.7879638671875	100.9259185791016	1410.84765625	737.6297607421875	122.5112533569336	1325.917846679688	844.738525390625	949.5656127929688	1358.548461914063	765.5377197265625	887.6885986328125	1419.631469726563	639.9235229492188	41.44547271728516	1366.110595703125	668.7587890625	64.88261413574219	1406.416625976563	652.2158203125	92.2467041015625	1363.380249023438	742.4720458984375	450.134521484375	1429.80224609375	759.9869384765625	1003.562194824219	1404.141723632813	742.9364013671875	513.3956298828125	1424.711059570313	730.5239868164063	485.7128601074219	1295.166381835938	855.406494140625	61.30737686157227	1329.23095703125	862.5817260742188	70.74868011474609	1371.694091796875	824.7576904296875	48.60438537597656	1438.936279296875	658.4549560546875	967.1038208007813	1285.755004882813	710.9542236328125	170.3491516113281	1420.13037109375	670.9774780273438	175.9165954589844	1388.212158203125	707.73388671875	254.0348358154297	1435.923217773438	666.6533203125	255.6298522949219	1401.930908203125	728.0579833984375	598.2125854492188	1432.672973632813	673.2366943359375	599.5967407226563	1384.696655273438	725.3954467773438	708.87109375	1435.6611328125	675.2045288085938	709.3978881835938	1388.813842773438	792.22314453125	422.8119506835938	1375.426147460938	
133	0.88	722.8085327148438	98.35944366455078	1045.1337890625	732.1702270507813	111.2339935302734	1132.364990234375	860.142822265625	945.371826171875	1126.234741210938	783.7300415039063	882.1491088867188	1054.694213867188	645.0249633789063	40.43753051757813	1088.117553710938	669.0410766601563	62.31557846069336	1047.263549804688	654.3710327148438	88.02131652832031	1089.012451171875	754.5813598632813	444.9331970214844	1027.764892578125	774.3809814453125	1007.369445800781	1065.088134765625	757.8583374023438	504.3179016113281	1032.764404296875	732.3467407226563	481.3475341796875	1164.8115234375	861.1753540039063	60.57018280029297	1127.36474609375	865.56689453125	70.38148498535156	1088.996948242188	828.1979370117188	53.1246223449707	1021.737060546875	663.6942138671875	966.8533325195313	1184.122314453125	702.7258911132813	175.2389984130859	1039.571533203125	674.6737060546875	178.8296813964844	1087.691650390625	695.6524658203125	255.0366668701172	1030.07861328125	669.8754272460938	259.2489013671875	1077.755004882813	746.5454711914063	586.9301147460938	1029.9521484375	684.785888671875	592.864501953125	1069.059692382813	755.2798461914063	696.528564453125	1029.103515625	696.9168090820313	701.7412109375	1068.011840820313	802.7393188476563	429.1739501953125	1091.625732421875	714.7786865234375	100.9223785400391	1410.849975585938	737.6261596679688	122.5122680664063	1325.928466796875	844.7125854492188	949.5638427734375	1358.534545898438	765.5137939453125	887.681640625	1419.646484375	639.9159545898438	41.44547653198242	1366.115600585938	668.7589721679688	64.88009643554688	1406.420166015625	652.20458984375	92.24680328369141	1363.393188476563	742.4630126953125	450.1365051269531	1429.791137695313	759.9418334960938	1003.551330566406	1404.134155273438	742.9343872070313	513.3883056640625	1424.70263671875	730.5253295898438	485.7102355957031	1295.177368164063	855.4061889648438	61.31134796142578	1329.232421875	862.5836791992188	70.75131988525391	1371.710083007813	824.7683715820313	48.60078430175781	1438.938720703125	658.4322509765625	967.0878295898438	1285.721801757813	710.9562377929688	170.3437347412109	1420.134521484375	670.9718017578125	175.9153900146484	1388.203735351563	707.7302856445313	254.0382995605469	1435.925659179688	666.65478515625	255.6244964599609	1401.926635742188	728.031005859375	598.2039184570313	1432.671020507813	673.2184448242188	599.5833129882813	1384.677978515625	725.3574829101563	708.8560791015625	1435.670776367188	675.1687622070313	709.3805541992188	1388.810791015625	792.2229614257813	422.8214416503906	1375.426025390625	
134	0.8866666666666667	722.7652587890625	98.37986755371094	1045.116577148438	732.1642456054688	111.2383880615234	1132.373046875	860.1300659179688	945.3838500976563	1126.218627929688	783.7136840820313	882.1588745117188	1054.669555664063	645.01513671875	40.43103408813477	1088.1201171875	669.0369873046875	62.31740188598633	1047.259155273438	654.365234375	88.01634216308594	1089.012329101563	754.5748291015625	444.9359436035156	1027.744995117188	774.3534545898438	1007.373779296875	1065.078491210938	757.8228149414063	504.345703125	1032.741577148438	732.3395385742188	481.3748779296875	1164.801635742188	861.17919921875	60.57376480102539	1127.373168945313	865.5596313476563	70.38405609130859	1089.002807617188	828.198486328125	53.12616348266602	1021.727661132813	663.665771484375	966.8461303710938	1184.086181640625	702.7164916992188	175.2364196777344	1039.563720703125	674.6695556640625	178.8227844238281	1087.688110351563	695.6405639648438	255.041015625	1030.064697265625	669.8632202148438	259.2406616210938	1077.743041992188	746.49853515625	586.94091796875	1029.934692382813	684.7601928710938	592.8735961914063	1069.036865234375	755.227783203125	696.5508422851563	1029.072265625	696.8865356445313	701.7628784179688	1067.9873046875	802.7188110351563	429.3097839355469	1091.613525390625	714.7862548828125	100.9156646728516	1410.851806640625	737.6282958984375	122.5185165405273	1325.9208984375	844.6881713867188	949.5659790039063	1358.522827148438	765.4832153320313	887.6952514648438	1419.660034179688	639.9237060546875	41.44553756713867	1366.115234375	668.759033203125	64.87996673583984	1406.416259765625	652.2119750976563	92.24867248535156	1363.387084960938	742.4614868164063	450.1294555664063	1429.790649414063	759.8851928710938	1003.535949707031	1404.115600585938	742.9189453125	513.3810424804688	1424.693115234375	730.5118408203125	485.7072448730469	1295.165283203125	855.4076538085938	61.30855178833008	1329.240356445313	862.582275390625	70.7486572265625	1371.703735351563	824.762939453125	48.59955978393555	1438.942749023438	658.394775390625	967.0767822265625	1285.694458007813	710.9594116210938	170.3506317138672	1420.136840820313	670.9730834960938	175.9118347167969	1388.220336914063	707.7305297851563	254.0249481201172	1435.926391601563	666.6490478515625	255.6265716552734	1401.931030273438	728.0045776367188	598.2041625976563	1432.673461914063	673.1892700195313	599.5723876953125	1384.67919921875	725.3235473632813	708.8499755859375	1435.672241210938	675.1411743164063	709.377685546875	1388.813110351563	792.22802734375	422.836181640625	1375.41455078125	
135	0.8933333333333334	722.7737426757813	98.37122344970703	1045.115234375	732.1588745117188	111.2383880615234	1132.354370117188	860.10595703125	945.39599609375	1126.212646484375	783.7058715820313	882.16943359375	1054.647216796875	645.0169677734375	40.42266464233398	1088.120361328125	669.0458984375	62.30976867675781	1047.255249023438	654.3690795898438	87.99748229980469	1089.004272460938	754.56103515625	444.9485473632813	1027.723999023438	774.33447265625	1007.394958496094	1065.074340820313	757.7672729492188	504.3927307128906	1032.725219726563	732.3237915039063	481.4063415527344	1164.786865234375	861.178466796875	60.57855606079102	1127.359375	865.56884765625	70.38330841064453	1088.992065429688	828.1934814453125	53.12656021118164	1021.733825683594	663.6388549804688	966.8358154296875	1184.058471679688	702.7076416015625	175.2312622070313	1039.556274414063	674.6615600585938	178.8168640136719	1087.671020507813	695.630859375	255.03369140625	1030.054321289063	669.8451538085938	259.2377624511719	1077.731323242188	746.4733276367188	586.953125	1029.913452148438	684.7325439453125	592.8894653320313	1069.012817382813	755.1846313476563	696.5848999023438	1029.02880859375	696.8488159179688	701.784912109375	1067.934326171875	802.7242431640625	429.4674682617188	1091.58544921875	714.7845458984375	100.9238128662109	1410.857666015625	737.628173828125	122.508903503418	1325.928344726563	844.6502075195313	949.5711669921875	1358.513916015625	765.4514770507813	887.7009887695313	1419.663818359375	639.9260864257813	41.44982147216797	1366.113037109375	668.7646484375	64.870849609375	1406.427734375	652.212646484375	92.24784851074219	1363.390014648438	742.4637451171875	450.1262817382813	1429.780029296875	759.8342895507813	1003.507934570313	1404.10400390625	742.900390625	513.3729248046875	1424.69287109375	730.5128173828125	485.7009887695313	1295.167724609375	855.4036254882813	61.31082534790039	1329.243408203125	862.5785522460938	70.75325775146484	1371.706298828125	824.7653198242188	48.60367202758789	1438.938842773438	658.3418579101563	967.0599365234375	1285.652709960938	710.9646606445313	170.3451843261719	1420.133056640625	670.973876953125	175.9101409912109	1388.211059570313	707.7305297851563	254.0243377685547	1435.92529296875	666.6431274414063	255.6248779296875	1401.921752929688	727.9844970703125	598.1920166015625	1432.670776367188	673.1724853515625	599.56884765625	1384.669067382813	725.2930297851563	708.8363647460938	1435.682739257813	675.11328125	709.3694458007813	1388.8134765625	792.2169799804688	422.822265625	1375.402221679688	
